<?xml version="1.0" encoding="utf-8" ?>
<svg xmlns="http://www.w3.org/2000/svg" xmlns:xlink="http://www.w3.org/1999/xlink" width="512" height="512">
	<path fill="#06652A" transform="scale(0.5 0.5)" d="M514.94 143.637C515.891 144.032 516.56 144.369 517.319 145.088L535.794 164.154L603.062 232.739L621.755 251.862C623.891 254.081 627.659 257.231 628.87 260.047C629.222 260.866 629.182 260.84 629.315 261.582L628.955 300.183C625.064 299.636 620.741 299.993 616.805 299.991L593.937 299.979L514.6 299.966L514.866 263.154L515.065 249.731L514.94 143.637Z"/>
	<path fill="#047736" transform="scale(0.5 0.5)" d="M515.065 249.731L515.17 250.318C515.825 254.295 515.627 258.514 515.371 262.525L600.246 262.046L621.11 261.977C623.368 261.969 627.311 262.442 629.315 261.582L628.955 300.183C625.064 299.636 620.741 299.993 616.805 299.991L593.937 299.979L514.6 299.966L514.866 263.154L515.065 249.731Z"/>
	<path fill="#039D3D" transform="scale(0.5 0.5)" d="M401.999 759.141C401.229 759.271 400.287 759.22 399.5 759.227L231.987 759.445L183.703 759.43C175.226 759.425 165.997 760.159 157.653 758.879C151.53 757.94 145.903 755.123 141.515 750.757C134.494 743.774 132.594 734.586 132.516 725.036L133.007 704.781L133.055 631.256L133.087 356.144L132.881 230.91L132.661 190.39C132.623 183.41 132.125 176.02 132.696 169.084C133.212 162.825 135.51 156.384 140.015 151.887C148.467 143.45 156.876 143.738 168.072 143.646C167.372 146.508 167.91 150.75 167.91 153.766L167.908 179.23L167.905 288.032L167.926 558.375L167.89 650.089L167.935 697.095C167.994 699.698 168.133 701.983 168.845 704.5L169.055 705.278C169.497 706.863 170.067 708.204 170.847 709.644L171.138 710.194C174.242 715.862 180.119 720.059 186.248 721.798C193.696 723.911 202.282 723.044 210.007 723.044L240.84 723.03L343.957 722.918L401.954 721.996L401.999 759.141Z"/>
	<path fill="#0DB060" transform="scale(0.5 0.5)" d="M168.072 143.646L514.94 143.637L515.065 249.731L514.866 263.154L462.304 262.992C451.109 262.997 439.179 262.188 428.062 263.169C425.656 263.382 423.587 263.96 421.326 264.799L420.476 265.109C413.955 267.549 408.069 272.724 405.316 279.2C404.336 281.504 403.802 284.03 403.447 286.5L403.318 287.352C402.68 291.967 402.957 296.783 402.952 301.44L402.96 325.015L402.962 404.545L402.902 676.055L402.866 735.284L402.875 751.222C402.876 753.644 403.242 756.677 402.598 759.014L401.999 759.141L401.954 721.996L343.957 722.918L240.84 723.03L210.007 723.044C202.282 723.044 193.696 723.911 186.248 721.798C180.119 720.059 174.242 715.862 171.138 710.194L170.847 709.644C170.067 708.204 169.497 706.863 169.055 705.278L168.845 704.5C168.133 701.983 167.994 699.698 167.935 697.095L167.89 650.089L167.926 558.375L167.905 288.032L167.908 179.23L167.91 153.766C167.91 150.75 167.372 146.508 168.072 143.646Z"/>
	<path fill="#EF0C0F" transform="scale(0.5 0.5)" d="M321.008 467.263C331.645 468.878 342.354 472.127 351.982 476.94C367.165 484.53 379.061 497.672 386.75 512.663C391.06 521.066 393.994 530.063 396.963 538.998L321.013 539.241L321.008 467.263Z"/>
	<path fill="#6DBFC4" transform="scale(0.5 0.5)" d="M320.989 564.497L396.282 564.905C393.557 576.542 390.51 587.787 383.694 597.813C380.244 602.888 375.894 607.295 371.669 611.718C356.812 625.615 340.855 633.205 320.974 636.772L320.989 564.497Z"/>
	<path fill="#FEFEFE" transform="scale(0.5 0.5)" d="M218.313 564.516L295.069 564.505L295.023 637.182C282.524 635.817 270.73 631.194 260.022 624.676C243.719 614.752 230.621 599.881 223.464 582.128C221.171 576.442 219.762 570.458 218.313 564.516Z"/>
	<path fill="#F6CB0C" transform="scale(0.5 0.5)" d="M292.447 466.75C293.865 466.55 293.841 466.409 294.972 467.25L295.041 539.01L220.219 538.768C219.133 538.56 219.022 538.557 218.25 537.778C219.369 526.207 224.895 513.586 231.173 503.958C245.508 481.976 267.683 472.043 292.447 466.75Z"/>
	<path fill="#FEFEFE" transform="scale(0.5 0.5)" d="M402.598 759.014C403.242 756.677 402.876 753.644 402.875 751.222L402.866 735.284L402.902 676.055L402.962 404.545L402.96 325.015L402.952 301.44C402.957 296.783 402.68 291.967 403.318 287.352L403.447 286.5C403.802 284.03 404.336 281.504 405.316 279.2C408.069 272.724 413.955 267.549 420.476 265.109L421.326 264.799C423.587 263.96 425.656 263.382 428.062 263.169C439.179 262.188 451.109 262.997 462.304 262.992L514.866 263.154L514.6 299.966L593.937 299.979L616.805 299.991C620.741 299.993 625.064 299.636 628.955 300.183L761.942 299.945L762.356 297.75L763 297.52L891.18 424.584L890.926 465.776L891.025 537.358L890.8 753.533L890.744 824.799L890.768 847.688C890.77 852.216 890.956 856.933 890.469 861.435C889.957 866.152 886.927 871.019 883.474 874.215C879.938 877.489 875.827 879.231 871.047 879.563C861.464 880.228 851.648 879.838 842.036 879.845L791.576 879.867L633.745 879.89L490.969 879.895L447.712 879.912C440.046 879.939 432.045 880.48 424.425 879.877C418.229 879.386 412.44 875.458 408.57 870.75C405.353 866.836 403.506 861.581 402.797 856.619C401.572 848.048 402.793 838.412 402.806 829.712L402.598 759.014Z"/>
	<path fill="#0DB060" transform="scale(0.5 0.5)" d="M502.601 412.489L638.501 412.499L638.517 457.982L502.53 457.992L502.601 412.489Z"/>
	<path fill="#0DB060" transform="scale(0.5 0.5)" d="M502.545 719.488L696.965 719.501L696.616 766.507L502.705 766.991L502.545 719.488Z"/>
	<path fill="#0DB060" transform="scale(0.5 0.5)" d="M502.53 643.769L800.6 644.007L800.495 690.507L502.53 690.992L502.53 643.769Z"/>
	<path fill="#0DB060" transform="scale(0.5 0.5)" d="M502.543 566.488L800.614 566.747L800.595 613.743L502.538 613.5L502.543 566.488Z"/>
	<path fill="#0DB060" transform="scale(0.5 0.5)" d="M519.576 488.753L800.574 488.793L800.51 536.458L784.75 536.493L502.53 536.24L502.525 488.763L519.576 488.753Z"/>
	<path fill="#0B4D58" transform="scale(0.5 0.5)" d="M402.598 759.014C403.242 756.677 402.876 753.644 402.875 751.222L402.866 735.284L402.902 676.055L402.962 404.545L402.96 325.015L402.952 301.44C402.957 296.783 402.68 291.967 403.318 287.352L403.447 286.5C403.802 284.03 404.336 281.504 405.316 279.2C408.069 272.724 413.955 267.549 420.476 265.109L421.326 264.799C423.587 263.96 425.656 263.382 428.062 263.169C439.179 262.188 451.109 262.997 462.304 262.992L514.866 263.154L514.6 299.966L437.488 300.004L437.439 846.016L855.404 845.765L855.415 431.799L804.221 431.958L789.146 431.994C786.43 431.987 783.484 432.168 780.806 431.661C776.303 430.81 772.143 428.286 768.872 425.131C766.036 422.395 763.567 418.481 762.732 414.58C760.959 406.305 762 396.552 761.999 388.043L762.042 327.653L762.049 309.482C762.05 306.347 762.296 303.047 761.942 299.945L762.356 297.75L763 297.52L891.18 424.584L890.926 465.776L891.025 537.358L890.8 753.533L890.744 824.799L890.768 847.688C890.77 852.216 890.956 856.933 890.469 861.435C889.957 866.152 886.927 871.019 883.474 874.215C879.938 877.489 875.827 879.231 871.047 879.563C861.464 880.228 851.648 879.838 842.036 879.845L791.576 879.867L633.745 879.89L490.969 879.895L447.712 879.912C440.046 879.939 432.045 880.48 424.425 879.877C418.229 879.386 412.44 875.458 408.57 870.75C405.353 866.836 403.506 861.581 402.797 856.619C401.572 848.048 402.793 838.412 402.806 829.712L402.598 759.014Z"/>
</svg>
